<?xml version="1.0" encoding="iso-8859-1"?>
<!-- Generator: Adobe Illustrator 19.0.0, SVG Export Plug-In . SVG Version: 6.00 Build 0)  -->
<svg version="1.1" id="Layer_1" xmlns="http://www.w3.org/2000/svg" xmlns:xlink="http://www.w3.org/1999/xlink" x="0px" y="0px"
	 viewBox="0 0 505 505" style="enable-background:new 0 0 505 505;" xml:space="preserve">
<circle style="fill:#324A5E;" cx="252.5" cy="252.5" r="252.5"/>
<path style="fill:#2B3B4E;" d="M41.1,390.5C86.2,459.4,164,505,252.5,505s166.3-45.6,211.4-114.5H41.1z"/>
<rect x="131.513" y="154.602" transform="matrix(-0.9798 -0.2002 0.2002 -0.9798 322.8566 454.6563)" style="fill:#4CDBC4;" width="105.805" height="112.805"/>
<g>
	<path style="fill:#EDF2F2;" d="M253,145.3l-105.9-21.6c-5.9-1.2-11.6,2.6-12.8,8.5c-1.2,5.9,2.6,11.6,8.5,12.8l105.9,21.6
		c5.9,1.2,11.6-2.6,12.8-8.5C262.7,152.2,258.9,146.5,253,145.3z"/>
	<path style="fill:#EDF2F2;" d="M226.1,277.1l-105.9-21.6c-5.9-1.2-11.6,2.6-12.8,8.5c-1.2,5.9,2.6,11.6,8.5,12.8l105.9,21.6
		c5.9,1.2,11.6-2.6,12.8-8.5C235.7,284,232,278.3,226.1,277.1z"/>
	<path style="fill:#EDF2F2;" d="M412.2,238.9l-172.3-35.2l-7.3,35.9l172.3,35.2c9.3,1.9,18.5-4.6,20.5-14.5
		C427.4,250.4,421.5,240.8,412.2,238.9z"/>
</g>
<path style="fill:#ACB3BA;" d="M314.2,372.2H88.7c-5.3,0-9.5,4.1-9.5,9.2s4.3,9.2,9.5,9.2h225.4c5.3,0,9.5-4.1,9.5-9.2
	C323.7,376.3,319.4,372.2,314.2,372.2z"/>
<path style="fill:#EDF2F2;" d="M290.1,339.5H112.8c-13.4,0-24.3,10.9-24.3,24.3v8.4h225.7v-8.4C314.3,350.4,303.5,339.5,290.1,339.5
	z"/>
<g>
</g>
<g>
</g>
<g>
</g>
<g>
</g>
<g>
</g>
<g>
</g>
<g>
</g>
<g>
</g>
<g>
</g>
<g>
</g>
<g>
</g>
<g>
</g>
<g>
</g>
<g>
</g>
<g>
</g>
</svg>
